<svg width="22" height="20" viewBox="0 0 22 20" fill="none" xmlns="http://www.w3.org/2000/svg">
<path d="M20.925 3.641H3.86301L3.61001 0.816C3.59002 0.59301 3.48727 0.385582 3.32199 0.234558C3.15672 0.0835332 2.94089 -0.000144378 2.71701 1.87005e-07H0.897007C0.659373 1.87005e-07 0.431472 0.0943999 0.263439 0.262433C0.0954068 0.430465 0.00100708 0.658366 0.00100708 0.896C0.00100708 1.13363 0.0954068 1.36154 0.263439 1.52957C0.431472 1.6976 0.659373 1.792 0.897007 1.792H1.89701L2.92801 13.275C3.00101 14.103 3.44801 15.001 4.21901 15.611C2.83001 17.385 4.09901 20 6.35901 20C8.23401 20 9.55601 18.13 8.91301 16.358H13.818C13.176 18.128 14.495 20 16.373 20C17.0934 19.9992 17.784 19.7127 18.2933 19.2033C18.8027 18.694 19.0892 18.0034 19.09 17.283C19.0892 16.5627 18.8027 15.872 18.2933 15.3627C17.784 14.8533 17.0934 14.5668 16.373 14.566H6.36501C5.68401 14.566 5.09101 14.156 4.83501 13.557L19.156 12.715C19.3465 12.7039 19.5285 12.6322 19.6755 12.5104C19.8224 12.3887 19.9267 12.2231 19.973 12.038L21.794 4.755C21.827 4.62281 21.8294 4.48485 21.8011 4.35159C21.7728 4.21833 21.7145 4.09326 21.6306 3.98589C21.5468 3.87852 21.4395 3.79166 21.3171 3.7319C21.1947 3.67214 21.0602 3.64105 20.924 3.641H20.925ZM6.35801 18.208C6.12012 18.1969 5.89564 18.0946 5.73121 17.9224C5.56678 17.7501 5.47503 17.5211 5.47503 17.283C5.47503 17.0449 5.56678 16.8159 5.73121 16.6436C5.89564 16.4714 6.12012 16.3691 6.35801 16.358C6.59589 16.3691 6.82037 16.4714 6.9848 16.6436C7.14924 16.8159 7.24098 17.0449 7.24098 17.283C7.24098 17.5211 7.14924 17.7501 6.9848 17.9224C6.82037 18.0946 6.59589 18.1969 6.35801 18.208V18.208ZM16.373 18.208C16.1351 18.1969 15.9106 18.0946 15.7462 17.9224C15.5818 17.7501 15.49 17.5211 15.49 17.283C15.49 17.0449 15.5818 16.8159 15.7462 16.6436C15.9106 16.4714 16.1351 16.3691 16.373 16.358C16.6109 16.3691 16.8354 16.4714 16.9998 16.6436C17.1642 16.8159 17.256 17.0449 17.256 17.283C17.256 17.5211 17.1642 17.7501 16.9998 17.9224C16.8354 18.0946 16.6109 18.1969 16.373 18.208V18.208ZM18.394 10.965L4.59401 11.775L4.02401 5.434H19.777L18.394 10.964V10.965Z" fill="white"/>
</svg>
